<svg width="14" height="14" viewBox="0 0 14 14" fill="none" xmlns="http://www.w3.org/2000/svg">
<path d="M7 0C3.1402 0 0 3.14024 0 7.00004C0 10.8598 3.1402 14 7 14C10.8598 14 14 10.8598 14 7.00004C14 3.14024 10.8598 0 7 0ZM7 12.7273C3.84194 12.7273 1.27273 10.1581 1.27273 7.00004C1.27273 3.84202 3.84194 1.27273 7 1.27273C10.1581 1.27273 12.7273 3.84202 12.7273 7.00004C12.7273 10.1581 10.158 12.7273 7 12.7273Z" fill="white"/>
<path d="M6.99993 2.9697C6.53216 2.9697 6.15161 3.3505 6.15161 3.81856C6.15161 4.28621 6.53216 4.66667 6.99993 4.66667C7.4677 4.66667 7.84824 4.28621 7.84824 3.81856C7.84824 3.3505 7.4677 2.9697 6.99993 2.9697Z" fill="white"/>
<path d="M7.00001 5.93939C6.64857 5.93939 6.36365 6.22431 6.36365 6.57576V10.3939C6.36365 10.7454 6.64857 11.0303 7.00001 11.0303C7.35145 11.0303 7.63638 10.7454 7.63638 10.3939V6.57576C7.63638 6.22431 7.35145 5.93939 7.00001 5.93939Z" fill="white"/>
</svg>
