<svg width="14" height="14" viewBox="0 0 14 14" fill="none" xmlns="http://www.w3.org/2000/svg">
<path d="M7 0C3.13996 0 0 3.13996 0 7C0 10.86 3.13996 14 7 14C10.86 14 14 10.8595 14 7C14 3.14051 10.86 0 7 0ZM7 12.9156C3.73857 12.9156 1.08443 10.262 1.08443 7C1.08443 3.73803 3.73857 1.08443 7 1.08443C10.262 1.08443 12.9156 3.73803 12.9156 7C12.9156 10.262 10.2614 12.9156 7 12.9156Z" fill="white"/>
<path d="M10.096 7.74826L7.38495 5.03718C7.17347 4.8268 6.8319 4.8268 6.62042 5.03718L3.90934 7.74826C3.7353 7.95104 3.7353 8.25089 3.90934 8.45367C4.104 8.68087 4.44667 8.70742 4.67387 8.51276L6.99998 6.18669L9.3315 8.51279C9.54297 8.72317 9.88455 8.72317 10.096 8.51279C10.3064 8.30131 10.3064 7.95971 10.096 7.74826Z" fill="white"/>
</svg>
