<svg width="14" height="14" viewBox="0 0 14 14" fill="none" xmlns="http://www.w3.org/2000/svg">
<path d="M3.20831 10.3542C1.43672 10.3542 0.898306 9.7125 0.808473 9.58417C0.775355 9.53712 0.751907 9.48397 0.73949 9.42779C0.727073 9.37162 0.725934 9.31354 0.736139 9.25692L0.864473 8.533C0.946751 8.05962 1.17052 7.62227 1.50629 7.27859C1.84206 6.9349 2.27407 6.70101 2.74541 6.60773C3.21675 6.51445 3.70528 6.56615 4.14665 6.75603C4.58802 6.94592 4.9615 7.26506 5.21789 7.67142C5.27977 7.76966 5.3001 7.88846 5.27439 8.00168C5.24868 8.11491 5.17905 8.21328 5.08081 8.27517C4.98257 8.33705 4.86377 8.35737 4.75054 8.33167C4.63732 8.30596 4.53894 8.23632 4.47706 8.13808C4.3145 7.88162 4.07808 7.68039 3.79893 7.5609C3.51979 7.44141 3.211 7.40925 2.91322 7.46867C2.61545 7.52809 2.34264 7.67629 2.13073 7.89376C1.91882 8.11123 1.77774 8.38778 1.72606 8.687L1.64089 9.16767C2.12621 9.40949 2.6674 9.51704 3.20831 9.47917C3.32434 9.47917 3.43562 9.52526 3.51767 9.60731C3.59971 9.68935 3.64581 9.80063 3.64581 9.91667C3.64581 10.0327 3.59971 10.144 3.51767 10.226C3.43562 10.3081 3.32434 10.3542 3.20831 10.3542Z" fill="white"/>
<path d="M3.20829 6.27083C2.89102 6.27083 2.58087 6.17675 2.31707 6.00048C2.05326 5.82421 1.84765 5.57368 1.72624 5.28056C1.60482 4.98743 1.57305 4.66489 1.63495 4.35371C1.69685 4.04253 1.84963 3.7567 2.07398 3.53235C2.29832 3.308 2.58416 3.15522 2.89534 3.09332C3.20651 3.03143 3.52906 3.0632 3.82218 3.18461C4.1153 3.30603 4.36584 3.51164 4.54211 3.77544C4.71838 4.03924 4.81246 4.34939 4.81246 4.66667C4.81215 5.09202 4.64304 5.49987 4.34227 5.80064C4.0415 6.10142 3.63365 6.27052 3.20829 6.27083ZM3.20829 3.9375C3.06408 3.9375 2.9231 3.98027 2.80319 4.06039C2.68328 4.14051 2.58982 4.25439 2.53463 4.38763C2.47944 4.52086 2.465 4.66748 2.49314 4.80892C2.52127 4.95037 2.59072 5.08029 2.69269 5.18227C2.79467 5.28424 2.9246 5.35369 3.06604 5.38182C3.20748 5.40996 3.3541 5.39552 3.48733 5.34033C3.62057 5.28514 3.73445 5.19168 3.81457 5.07177C3.8947 4.95186 3.93746 4.81088 3.93746 4.66667C3.93715 4.47337 3.86023 4.28809 3.72355 4.15141C3.58687 4.01473 3.40159 3.93781 3.20829 3.9375Z" fill="white"/>
<path d="M10.7917 10.3542C10.6756 10.3542 10.5644 10.3081 10.4823 10.226C10.4003 10.144 10.3542 10.0327 10.3542 9.91667C10.3542 9.80064 10.4003 9.68936 10.4823 9.60731C10.5644 9.52526 10.6756 9.47917 10.7917 9.47917C11.3331 9.51699 11.8747 9.40775 12.3591 9.163L12.2745 8.68642C12.2143 8.33683 12.0324 8.01978 11.7611 7.79125C11.4898 7.56273 11.1464 7.43744 10.7917 7.4375C10.5381 7.43645 10.2884 7.50021 10.0664 7.62271C9.84434 7.74522 9.65727 7.92242 9.52292 8.1375C9.49228 8.18614 9.45236 8.22828 9.40543 8.26149C9.35851 8.29471 9.3055 8.31835 9.24944 8.33108C9.19337 8.34381 9.13535 8.34538 9.07869 8.33568C9.02202 8.32599 8.96782 8.30523 8.91917 8.27458C8.87053 8.24394 8.8284 8.20402 8.79518 8.1571C8.76197 8.11017 8.73832 8.05716 8.72559 8.0011C8.69988 7.88788 8.7202 7.76908 8.78209 7.67083C9.03848 7.26426 9.41208 6.94494 9.85362 6.75498C10.2952 6.56502 10.7839 6.51335 11.2554 6.60678C11.7269 6.70021 12.159 6.93435 12.4948 7.27832C12.8305 7.6223 13.0541 8.05996 13.1361 8.53358L13.2638 9.25633C13.274 9.31295 13.2729 9.37104 13.2605 9.42721C13.2481 9.48339 13.2246 9.53654 13.1915 9.58359C13.1017 9.7125 12.5633 10.3542 10.7917 10.3542Z" fill="white"/>
<path d="M10.7917 6.27083C10.4744 6.27083 10.1642 6.17675 9.90044 6.00048C9.63664 5.82421 9.43103 5.57368 9.30961 5.28056C9.1882 4.98743 9.15643 4.66489 9.21832 4.35371C9.28022 4.04253 9.433 3.7567 9.65735 3.53235C9.8817 3.308 10.1675 3.15522 10.4787 3.09332C10.7899 3.03143 11.1124 3.0632 11.4056 3.18461C11.6987 3.30603 11.9492 3.51164 12.1255 3.77544C12.3018 4.03924 12.3958 4.34939 12.3958 4.66667C12.3955 5.09202 12.2264 5.49987 11.9256 5.80064C11.6249 6.10142 11.217 6.27052 10.7917 6.27083ZM10.7917 3.9375C10.6475 3.9375 10.5065 3.98027 10.3866 4.06039C10.2667 4.14051 10.1732 4.25439 10.118 4.38763C10.0628 4.52086 10.0484 4.66748 10.0765 4.80892C10.1046 4.95037 10.1741 5.08029 10.2761 5.18227C10.378 5.28424 10.508 5.35369 10.6494 5.38182C10.7909 5.40996 10.9375 5.39552 11.0707 5.34033C11.2039 5.28514 11.3178 5.19168 11.3979 5.07177C11.4781 4.95186 11.5208 4.81088 11.5208 4.66667C11.5205 4.47337 11.4436 4.28809 11.3069 4.15141C11.1702 4.01473 10.985 3.93781 10.7917 3.9375Z" fill="white"/>
<path d="M6.99995 12.1042C4.60828 12.1042 3.89253 11.5115 3.77412 11.3925C3.72611 11.3445 3.6899 11.286 3.66834 11.2216C3.64678 11.1572 3.64045 11.0887 3.64987 11.0215L3.94737 8.94133C4.04433 8.28246 4.37425 7.68017 4.87726 7.24373C5.38028 6.80728 6.02307 6.56559 6.68903 6.5625H7.30853C7.97449 6.56559 8.61729 6.80728 9.1203 7.24373C9.62332 7.68017 9.95323 8.28246 10.0502 8.94133L10.3477 11.0215C10.3571 11.0887 10.3508 11.1572 10.3292 11.2216C10.3077 11.286 10.2715 11.3445 10.2234 11.3925C10.1074 11.5115 9.39162 12.1042 6.99995 12.1042ZM4.55695 10.864C5.33724 11.1535 6.16912 11.2778 6.99995 11.2292C7.83098 11.278 8.66307 11.1529 9.44295 10.8617L9.18628 9.065C9.11986 8.61411 8.89401 8.20197 8.5497 7.90336C8.20539 7.60476 7.76545 7.43947 7.3097 7.4375H6.6902C6.23445 7.43947 5.7945 7.60476 5.4502 7.90336C5.10589 8.20197 4.88003 8.61411 4.81362 9.065L4.55695 10.864Z" fill="white"/>
<path d="M7 6.27083C6.56735 6.27083 6.14442 6.14254 5.78469 5.90217C5.42496 5.66181 5.14458 5.32017 4.97901 4.92045C4.81345 4.52074 4.77013 4.08091 4.85453 3.65657C4.93894 3.23224 5.14728 2.84246 5.4532 2.53654C5.75913 2.23061 6.14891 2.02227 6.57324 1.93787C6.99757 1.85346 7.43741 1.89678 7.83712 2.06235C8.23683 2.22791 8.57847 2.50829 8.81884 2.86802C9.05921 3.22776 9.1875 3.65069 9.1875 4.08333C9.18688 4.66331 8.95622 5.21935 8.54611 5.62945C8.13601 6.03955 7.57997 6.27022 7 6.27083ZM7 2.77083C6.74041 2.77083 6.48665 2.84781 6.27081 2.99203C6.05498 3.13625 5.88675 3.34123 5.78741 3.58106C5.68807 3.82089 5.66208 4.08479 5.71272 4.33939C5.76336 4.59399 5.88837 4.82785 6.07192 5.01141C6.25548 5.19497 6.48934 5.31997 6.74394 5.37061C6.99854 5.42126 7.26244 5.39527 7.50227 5.29593C7.7421 5.19659 7.94709 5.02836 8.0913 4.81252C8.23552 4.59668 8.3125 4.34292 8.3125 4.08333C8.31219 3.73533 8.17381 3.40167 7.92774 3.1556C7.68166 2.90952 7.348 2.77114 7 2.77083Z" fill="white"/>
</svg>
