<svg width="14" height="14" viewBox="0 0 14 14" fill="none" xmlns="http://www.w3.org/2000/svg">
<path d="M7 11.0332C7.37754 11.0332 7.68359 10.7271 7.68359 10.3496C7.68359 9.97207 7.37754 9.66602 7 9.66602C6.62246 9.66602 6.31641 9.97207 6.31641 10.3496C6.31641 10.7271 6.62246 11.0332 7 11.0332Z" fill="white"/>
<path d="M7 0C3.1313 0 0 3.13078 0 7C0 10.8687 3.13078 14 7 14C10.8687 14 14 10.8692 14 7C14 3.1313 10.8692 0 7 0ZM7 12.9062C3.73579 12.9062 1.09375 10.2647 1.09375 7C1.09375 3.73579 3.73535 1.09375 7 1.09375C10.2642 1.09375 12.9062 3.73535 12.9062 7C12.9062 10.2642 10.2647 12.9062 7 12.9062Z" fill="white"/>
<path d="M7 3.51367C5.79381 3.51367 4.8125 4.49498 4.8125 5.70117C4.8125 6.00321 5.05734 6.24805 5.35938 6.24805C5.66141 6.24805 5.90625 6.00321 5.90625 5.70117C5.90625 5.09808 6.39691 4.60742 7 4.60742C7.60309 4.60742 8.09375 5.09808 8.09375 5.70117C8.09375 6.30427 7.60309 6.79492 7 6.79492C6.69796 6.79492 6.45312 7.03976 6.45312 7.3418V8.70898C6.45312 9.01102 6.69796 9.25586 7 9.25586C7.30204 9.25586 7.54688 9.01102 7.54688 8.70898V7.81946C8.4893 7.57602 9.1875 6.71861 9.1875 5.70117C9.1875 4.49498 8.20619 3.51367 7 3.51367Z" fill="white"/>
</svg>
