<svg width="14" height="14" viewBox="0 0 14 14" fill="none" xmlns="http://www.w3.org/2000/svg">
<g clip-path="url(#clip0_204_64)">
<path d="M3.08626 11.5684C2.52068 11.5684 2.06054 11.1082 2.06054 10.5427C2.06054 9.97709 2.52068 9.51698 3.08626 9.51698H7.01162C8.02961 9.51698 8.85777 8.68882 8.85777 7.67084C8.85777 6.65285 8.02958 5.82472 7.01162 5.82472H4.24331V6.64514H7.01162C7.5772 6.64514 8.03734 7.10528 8.03734 7.67086C8.03734 8.23644 7.5772 8.69656 7.01162 8.69656H3.08626C2.06827 8.69656 1.24011 9.52472 1.24011 10.5427C1.24011 11.5606 2.0683 12.3888 3.08626 12.3888H9.7568V11.5684H3.08626Z" fill="#FFD600"/>
<path d="M3.79952 2.09232C2.93149 1.22426 1.51907 1.22426 0.651042 2.09232C-0.217014 2.96037 -0.217014 4.37274 0.651042 5.24079L2.22528 6.81506L3.79955 5.24079C4.66757 4.37276 4.66757 2.96037 3.79952 2.09232ZM3.21942 4.66067L2.22531 5.65475L1.2312 4.66067C0.683035 4.11251 0.683035 3.22061 1.2312 2.67244C1.50526 2.39841 1.8653 2.26133 2.22531 2.26133C2.58532 2.26133 2.94532 2.39838 3.21942 2.67244C3.76758 3.22063 3.76758 4.11251 3.21942 4.66067Z" fill="#FFD600"/>
<path d="M2.21459 2.67737C1.67723 2.67737 1.24011 3.11451 1.24011 3.65185C1.24011 4.18918 1.67723 4.62633 2.21459 4.62633C2.75195 4.62633 3.18907 4.18918 3.18907 3.65185C3.18907 3.11451 2.75195 2.67737 2.21459 2.67737ZM2.21459 3.8059C2.12966 3.8059 2.06054 3.7368 2.06054 3.65185C2.06054 3.56692 2.12961 3.49779 2.21459 3.49779C2.29958 3.49779 2.36865 3.56689 2.36865 3.65185C2.36865 3.73678 2.29952 3.8059 2.21459 3.8059Z" fill="#FFD600"/>
<path d="M13.349 7.83599C12.481 6.96793 11.0685 6.96793 10.2005 7.83599C9.33249 8.70405 9.33249 10.1164 10.2005 10.9845L11.7748 12.5587L13.349 10.9845C14.2171 10.1164 14.2171 8.70402 13.349 7.83599ZM12.7689 10.4044L11.7748 11.3985L10.7807 10.4044C10.2325 9.85621 10.2325 8.96428 10.7807 8.41612C11.0548 8.142 11.4147 8.005 11.7748 8.005C12.1348 8.005 12.4949 8.14208 12.7689 8.41612C13.317 8.96428 13.317 9.85621 12.7689 10.4044Z" fill="#FFD600"/>
<path d="M11.764 8.42101C11.2267 8.42101 10.7896 8.85816 10.7896 9.39549C10.7896 9.93283 11.2267 10.37 11.764 10.37C12.3014 10.37 12.7385 9.93283 12.7385 9.39549C12.7385 8.85816 12.3014 8.42101 11.764 8.42101ZM11.764 9.54955C11.6791 9.54955 11.61 9.48045 11.61 9.39549C11.61 9.31054 11.679 9.24144 11.764 9.24144C11.849 9.24144 11.9181 9.31054 11.9181 9.39549C11.9181 9.48045 11.849 9.54955 11.764 9.54955Z" fill="#FFD600"/>
</g>
<defs>
<clipPath id="clip0_204_64">
<rect width="14" height="14" fill="white"/>
</clipPath>
</defs>
</svg>
