<svg width="48" height="41" viewBox="0 0 48 41" fill="none" xmlns="http://www.w3.org/2000/svg">
<g clip-path="url(#clip0_321_147)" filter="url(#filter0_d_321_147)">
<path d="M35.09 6.98938C33.05 6.06938 30.8633 5.38938 28.5766 5.00271C28.5563 4.9988 28.5352 5.00132 28.5163 5.00992C28.4975 5.01852 28.4817 5.03278 28.4713 5.05071C28.1913 5.54271 27.8793 6.18405 27.6606 6.69071C25.2354 6.32836 22.7698 6.32836 20.3446 6.69071C20.1011 6.12919 19.8264 5.58168 19.522 5.05071C19.5117 5.03256 19.496 5.01798 19.4772 5.00893C19.4584 4.99987 19.4373 4.99678 19.4166 5.00005C17.1313 5.38671 14.9446 6.06671 12.9033 6.98805C12.8857 6.99541 12.8709 7.00797 12.8606 7.02405C8.71131 13.124 7.57397 19.0734 8.13264 24.948C8.1342 24.9624 8.13866 24.9764 8.14577 24.989C8.15287 25.0016 8.16247 25.0126 8.17397 25.0214C10.5958 26.7846 13.2971 28.1278 16.1646 28.9947C16.1846 29.0009 16.206 29.0008 16.226 28.9947C16.246 28.9885 16.2636 28.9764 16.2766 28.96C16.8937 28.1348 17.4405 27.2593 17.9113 26.3427C17.9178 26.3302 17.9216 26.3164 17.9224 26.3023C17.9231 26.2882 17.9208 26.2741 17.9156 26.2609C17.9104 26.2478 17.9025 26.2359 17.8923 26.2261C17.8821 26.2163 17.87 26.2087 17.8566 26.204C16.9953 25.8797 16.1608 25.4883 15.3606 25.0334C15.3463 25.0252 15.3341 25.0135 15.3254 24.9995C15.3166 24.9854 15.3115 24.9694 15.3104 24.9529C15.3094 24.9364 15.3124 24.9199 15.3193 24.9048C15.3262 24.8898 15.3368 24.8767 15.35 24.8667C15.518 24.7427 15.686 24.6134 15.846 24.484C15.8604 24.4724 15.8777 24.465 15.8961 24.4627C15.9144 24.4603 15.9331 24.4631 15.95 24.4707C21.186 26.8227 26.8566 26.8227 32.0313 24.4707C32.0482 24.4626 32.0671 24.4595 32.0857 24.4616C32.1043 24.4637 32.122 24.471 32.1366 24.4827C32.2966 24.6134 32.4633 24.7427 32.6326 24.8667C32.646 24.8765 32.6567 24.8894 32.6638 24.9043C32.6709 24.9192 32.6742 24.9357 32.6735 24.9522C32.6727 24.9687 32.6678 24.9848 32.6593 24.9989C32.6508 25.0131 32.6389 25.0249 32.6246 25.0334C31.8273 25.492 30.998 25.88 30.1273 26.2027C30.1139 26.2076 30.1018 26.2152 30.0916 26.2252C30.0814 26.2351 30.0735 26.2471 30.0683 26.2603C30.0631 26.2736 30.0608 26.2878 30.0616 26.302C30.0623 26.3162 30.0661 26.3301 30.0726 26.3427C30.5526 27.2587 31.102 28.1307 31.706 28.9587C31.7185 28.9757 31.736 28.9884 31.7561 28.9951C31.7761 29.0018 31.7977 29.0021 31.818 28.996C34.6904 28.1316 37.3961 26.7877 39.8206 25.0214C39.8325 25.0131 39.8424 25.0024 39.8498 24.99C39.8571 24.9776 39.8617 24.9637 39.8633 24.9494C40.53 18.1574 38.746 12.256 35.1313 7.02671C35.1224 7.00972 35.1078 6.99647 35.09 6.98938ZM18.694 21.3707C17.118 21.3707 15.818 19.9454 15.818 18.1974C15.818 16.448 17.0926 15.024 18.694 15.024C20.3073 15.024 21.5953 16.46 21.57 18.1974C21.57 19.9467 20.2953 21.3707 18.694 21.3707ZM29.3273 21.3707C27.75 21.3707 26.4513 19.9454 26.4513 18.1974C26.4513 16.448 27.7246 15.024 29.3273 15.024C30.9406 15.024 32.2286 16.46 32.2033 18.1974C32.2033 19.9467 30.942 21.3707 29.3273 21.3707Z" fill="#FFD600"/>
</g>
<defs>
<filter id="filter0_d_321_147" x="0" y="-3" width="48" height="48" filterUnits="userSpaceOnUse" color-interpolation-filters="sRGB">
<feFlood flood-opacity="0" result="BackgroundImageFix"/>
<feColorMatrix in="SourceAlpha" type="matrix" values="0 0 0 0 0 0 0 0 0 0 0 0 0 0 0 0 0 0 127 0" result="hardAlpha"/>
<feOffset dy="4"/>
<feGaussianBlur stdDeviation="4"/>
<feColorMatrix type="matrix" values="0 0 0 0 0.0196078 0 0 0 0 0.14902 0 0 0 0 0.243137 0 0 0 0.23 0"/>
<feBlend mode="normal" in2="BackgroundImageFix" result="effect1_dropShadow_321_147"/>
<feBlend mode="normal" in="SourceGraphic" in2="effect1_dropShadow_321_147" result="shape"/>
</filter>
<clipPath id="clip0_321_147">
<rect width="32" height="32" fill="white" transform="translate(8 1)"/>
</clipPath>
</defs>
</svg>
