<svg width="48" height="48" viewBox="0 0 48 48" fill="none" xmlns="http://www.w3.org/2000/svg">
<g filter="url(#filter0_d_321_145)">
<path fill-rule="evenodd" clip-rule="evenodd" d="M24 4C15.16 4 8 11.16 8 20C8 27.08 12.58 33.06 18.94 35.18C19.74 35.32 20.04 34.84 20.04 34.42C20.04 34.04 20.02 32.78 20.02 31.44C16 32.18 14.96 30.46 14.64 29.56C14.46 29.1 13.68 27.68 13 27.3C12.44 27 11.64 26.26 12.98 26.24C14.24 26.22 15.14 27.4 15.44 27.88C16.88 30.3 19.18 29.62 20.1 29.2C20.24 28.16 20.66 27.46 21.12 27.06C17.56 26.66 13.84 25.28 13.84 19.16C13.84 17.42 14.46 15.98 15.48 14.86C15.32 14.46 14.76 12.82 15.64 10.62C15.64 10.62 16.98 10.2 20.04 12.26C21.32 11.9 22.68 11.72 24.04 11.72C25.4 11.72 26.76 11.9 28.04 12.26C31.1 10.18 32.44 10.62 32.44 10.62C33.32 12.82 32.76 14.46 32.6 14.86C33.62 15.98 34.24 17.4 34.24 19.16C34.24 25.3 30.5 26.66 26.94 27.06C27.52 27.56 28.02 28.52 28.02 30.02C28.02 32.16 28 33.88 28 34.42C28 34.84 28.3 35.34 29.1 35.18C32.2762 34.1076 35.0362 32.0662 36.9916 29.3432C38.9469 26.6201 39.999 23.3524 40 20C40 11.16 32.84 4 24 4Z" fill="#FFD600"/>
</g>
<defs>
<filter id="filter0_d_321_145" x="0" y="0" width="48" height="48" filterUnits="userSpaceOnUse" color-interpolation-filters="sRGB">
<feFlood flood-opacity="0" result="BackgroundImageFix"/>
<feColorMatrix in="SourceAlpha" type="matrix" values="0 0 0 0 0 0 0 0 0 0 0 0 0 0 0 0 0 0 127 0" result="hardAlpha"/>
<feOffset dy="4"/>
<feGaussianBlur stdDeviation="4"/>
<feColorMatrix type="matrix" values="0 0 0 0 0.0196078 0 0 0 0 0.14902 0 0 0 0 0.243137 0 0 0 0.23 0"/>
<feBlend mode="normal" in2="BackgroundImageFix" result="effect1_dropShadow_321_145"/>
<feBlend mode="normal" in="SourceGraphic" in2="effect1_dropShadow_321_145" result="shape"/>
</filter>
</defs>
</svg>
