<svg width="47" height="42" viewBox="0 0 47 42" fill="none" xmlns="http://www.w3.org/2000/svg">
<g filter="url(#filter0_d_321_141)">
<path d="M38.5247 7.58263C37.4113 8.07596 36.2153 8.40929 34.958 8.55996C36.2553 7.78368 37.2259 6.56192 37.6887 5.12263C36.4698 5.84661 35.1358 6.35622 33.7447 6.62929C32.8092 5.63045 31.5701 4.9684 30.2198 4.74593C28.8695 4.52346 27.4835 4.75302 26.277 5.39896C25.0705 6.04491 24.111 7.07111 23.5475 8.31823C22.984 9.56535 22.848 10.9636 23.1607 12.296C20.6909 12.172 18.2748 11.53 16.0692 10.4118C13.8636 9.29364 11.9178 7.72418 10.358 5.80529C9.82467 6.72529 9.518 7.79196 9.518 8.92796C9.51741 9.95062 9.76924 10.9576 10.2512 11.8596C10.7331 12.7616 11.4302 13.5307 12.2807 14.0986C11.2944 14.0672 10.3298 13.8007 9.46733 13.3213V13.4013C9.46723 14.8356 9.96338 16.2258 10.8716 17.336C11.7798 18.4461 13.0441 19.2079 14.45 19.492C13.535 19.7396 12.5758 19.7761 11.6447 19.5986C12.0413 20.8328 12.814 21.912 13.8545 22.6852C14.895 23.4584 16.1512 23.8869 17.4473 23.9106C15.2471 25.6378 12.5299 26.5747 9.73267 26.5706C9.23717 26.5708 8.7421 26.5418 8.25 26.484C11.0893 28.3095 14.3945 29.2784 17.77 29.2746C29.1967 29.2746 35.4433 19.8106 35.4433 11.6026C35.4433 11.336 35.4367 11.0666 35.4247 10.8C36.6397 9.92126 37.6885 8.83315 38.522 7.58663L38.5247 7.58263Z" fill="#FFD600"/>
</g>
<defs>
<filter id="filter0_d_321_141" x="-1" y="-3" width="48" height="48" filterUnits="userSpaceOnUse" color-interpolation-filters="sRGB">
<feFlood flood-opacity="0" result="BackgroundImageFix"/>
<feColorMatrix in="SourceAlpha" type="matrix" values="0 0 0 0 0 0 0 0 0 0 0 0 0 0 0 0 0 0 127 0" result="hardAlpha"/>
<feOffset dy="4"/>
<feGaussianBlur stdDeviation="4"/>
<feColorMatrix type="matrix" values="0 0 0 0 0.0196078 0 0 0 0 0.14902 0 0 0 0 0.243137 0 0 0 0.23 0"/>
<feBlend mode="normal" in2="BackgroundImageFix" result="effect1_dropShadow_321_141"/>
<feBlend mode="normal" in="SourceGraphic" in2="effect1_dropShadow_321_141" result="shape"/>
</filter>
</defs>
</svg>
