<svg width="42" height="46" viewBox="0 0 42 46" fill="none" xmlns="http://www.w3.org/2000/svg">
<g filter="url(#filter0_d_321_151)">
<path d="M23.6494 18.5C23.6986 18.5001 23.7468 18.4856 23.7878 18.4583C23.8289 18.4311 23.8609 18.3923 23.88 18.3469C23.8991 18.3016 23.9044 18.2515 23.8952 18.2031C23.8859 18.1548 23.8626 18.1102 23.8281 18.075L18.9281 13.0925C18.8933 13.0572 18.8487 13.033 18.8001 13.023C18.7515 13.0131 18.701 13.0178 18.6551 13.0366C18.6092 13.0555 18.5699 13.0876 18.5423 13.1288C18.5147 13.17 18.5 13.2185 18.5 13.2682V17.75C18.5 17.9489 18.579 18.1397 18.7197 18.2804C18.8603 18.421 19.0511 18.5 19.25 18.5H23.6494Z" fill="#FFD600"/>
<path d="M17.3125 19.6875C17.0558 19.4343 16.8518 19.1326 16.7124 18.8001C16.5729 18.4675 16.5007 18.1106 16.5 17.75V12H12C10.9401 12.0032 9.9245 12.4256 9.17503 13.1751C8.42557 13.9245 8.00313 14.9401 8 16V30C8 31.0609 8.42143 32.0783 9.17157 32.8285C9.92172 33.5786 10.9391 34 12 34H21C22.0609 34 23.0783 33.5786 23.8284 32.8285C24.5786 32.0783 25 31.0609 25 30V20.5H19.25C18.8894 20.4995 18.5324 20.4274 18.1998 20.288C17.8672 20.1485 17.5656 19.9444 17.3125 19.6875ZM28.25 10.5H32.6494C32.6986 10.5001 32.7468 10.4856 32.7878 10.4583C32.8289 10.4311 32.8609 10.3923 32.88 10.3469C32.8991 10.3016 32.9044 10.2515 32.8952 10.2031C32.8859 10.1548 32.8626 10.1102 32.8281 10.075L27.9281 5.09253C27.8933 5.05717 27.8487 5.03297 27.8001 5.02302C27.7515 5.01307 27.701 5.01781 27.6551 5.03665C27.6092 5.05548 27.5699 5.08756 27.5423 5.12878C27.5147 5.17001 27.5 5.21853 27.5 5.26815V9.75003C27.5 9.94894 27.579 10.1397 27.7197 10.2804C27.8603 10.421 28.0511 10.5 28.25 10.5Z" fill="#FFD600"/>
<path d="M28.25 12.5C27.5224 12.4944 26.8261 12.2029 26.3116 11.6884C25.7971 11.1739 25.5056 10.4776 25.5 9.75V4H18.75C17.7558 4.00116 16.8026 4.39662 16.0996 5.09963C15.3966 5.80264 15.0012 6.75579 15 7.75V10H17.6325C17.9685 10.0013 18.3009 10.0691 18.6107 10.1993C18.9205 10.3295 19.2014 10.5196 19.4375 10.7587L26.26 17.6962C26.736 18.1792 27.0017 18.8307 26.9994 19.5088V28H30.315C32.3469 28 33.9994 26.3175 33.9994 24.25V12.5H28.25Z" fill="#FFD600"/>
</g>
<defs>
<filter id="filter0_d_321_151" x="-3" y="-1" width="48" height="48" filterUnits="userSpaceOnUse" color-interpolation-filters="sRGB">
<feFlood flood-opacity="0" result="BackgroundImageFix"/>
<feColorMatrix in="SourceAlpha" type="matrix" values="0 0 0 0 0 0 0 0 0 0 0 0 0 0 0 0 0 0 127 0" result="hardAlpha"/>
<feOffset dy="4"/>
<feGaussianBlur stdDeviation="4"/>
<feColorMatrix type="matrix" values="0 0 0 0 0.0196078 0 0 0 0 0.14902 0 0 0 0 0.243137 0 0 0 0.23 0"/>
<feBlend mode="normal" in2="BackgroundImageFix" result="effect1_dropShadow_321_151"/>
<feBlend mode="normal" in="SourceGraphic" in2="effect1_dropShadow_321_151" result="shape"/>
</filter>
</defs>
</svg>
