<svg width="24" height="24" viewBox="0 0 24 24" fill="none" xmlns="http://www.w3.org/2000/svg">
<path d="M13.987 11.625C14.024 11.625 14.0601 11.6141 14.0909 11.5937C14.1217 11.5733 14.1457 11.5442 14.16 11.5102C14.1744 11.4761 14.1783 11.4386 14.1714 11.4023C14.1644 11.366 14.147 11.3326 14.1211 11.3062L10.4461 7.56936C10.42 7.54285 10.3866 7.5247 10.3501 7.51724C10.3136 7.50977 10.2758 7.51333 10.2413 7.52746C10.2069 7.54158 10.1775 7.56564 10.1567 7.59656C10.136 7.62748 10.125 7.66386 10.125 7.70108V11.0625C10.125 11.2117 10.1843 11.3547 10.2898 11.4602C10.3952 11.5657 10.5383 11.625 10.6875 11.625H13.987Z" fill="white"/>
<path d="M9.23438 12.5156C9.04184 12.3257 8.88886 12.0995 8.78427 11.85C8.67967 11.6006 8.62554 11.3329 8.625 11.0625V6.74999H5.25C4.45507 6.75234 3.69338 7.06916 3.13128 7.63126C2.56917 8.19336 2.25235 8.95506 2.25 9.74999V20.25C2.25 21.0456 2.56607 21.8087 3.12868 22.3713C3.69129 22.9339 4.45435 23.25 5.25 23.25H12C12.7957 23.25 13.5587 22.9339 14.1213 22.3713C14.6839 21.8087 15 21.0456 15 20.25V13.125H10.6875C10.417 13.1246 10.1493 13.0705 9.89986 12.9659C9.65043 12.8613 9.42423 12.7083 9.23438 12.5156ZM17.4375 5.62499H20.737C20.774 5.62502 20.8101 5.61414 20.8409 5.59372C20.8717 5.57329 20.8957 5.54423 20.91 5.51018C20.9244 5.47613 20.9283 5.43861 20.9214 5.40233C20.9144 5.36605 20.897 5.33262 20.8711 5.30624L17.1961 1.56936C17.17 1.54285 17.1366 1.5247 17.1001 1.51724C17.0636 1.50977 17.0258 1.51333 16.9913 1.52746C16.9569 1.54158 16.9275 1.56564 16.9067 1.59656C16.886 1.62748 16.875 1.66386 16.875 1.70108V5.06249C16.875 5.21167 16.9343 5.35475 17.0398 5.46024C17.1452 5.56573 17.2883 5.62499 17.4375 5.62499Z" fill="white"/>
<path d="M17.4375 7.125C16.8918 7.12083 16.3696 6.90219 15.9837 6.5163C15.5978 6.13041 15.3792 5.60822 15.375 5.0625V0.75H10.3125C9.56685 0.750868 8.85198 1.04746 8.32472 1.57472C7.79746 2.10198 7.50087 2.81685 7.5 3.5625V5.25H9.47438C9.72638 5.25101 9.97571 5.3018 10.208 5.39946C10.4403 5.49712 10.6511 5.63971 10.8281 5.81906L15.945 11.0222C16.302 11.3844 16.5013 11.873 16.4995 12.3816V18.75H18.9863C20.5102 18.75 21.7495 17.4881 21.7495 15.9375V7.125H17.4375Z" fill="white"/>
</svg>
