<svg width="255" height="59" viewBox="0 0 255 59" fill="none" xmlns="http://www.w3.org/2000/svg">
<g filter="url(#filter0_d_204_39)">
<path d="M33.9361 11.0763H31.7037V14.6631H29.0096V11H26.7773V14.6631H22.0048C19.6186 14.6631 17.8481 15.1974 16.6935 16.1895C15.5388 17.1816 15 18.7079 15 20.6158V30.1552C15 32.1395 15.5388 33.5894 16.6935 34.5815C17.8481 35.5737 19.6186 36.1079 22.0048 36.1079H26.7773V39.9237H29.0096V36.1079H31.7037V40H33.9361V36.1079H40.7099V30.9184H22.8515C22.1588 30.9184 21.6969 30.7658 21.389 30.5368C21.0811 30.3079 20.9271 30.0026 20.9271 29.5447L20.8502 27.8658V22.7526L20.9271 20.9973C20.9271 20.6921 21.0811 20.3868 21.389 20.1579C21.6969 19.9289 22.1588 19.8526 22.8515 19.8526H40.7099V14.5868H33.9361V11.0763Z" fill="white"/>
<path d="M43.0192 14.6631V36.1079H66.7277V31.071H49.793V27.5605H65.727V23.2105H49.793V19.6237H66.7277V14.6631H43.0192Z" fill="white"/>
<path d="M88.7428 28.4C90.0514 28.4 91.129 28.2474 91.9757 28.0184C92.8225 27.7895 93.5153 27.3315 94.0541 26.7973C94.5929 26.2631 94.9778 25.5 95.2087 24.6605C95.4396 23.7447 95.5936 22.6763 95.5936 21.3789C95.5936 20.0816 95.4397 19.0131 95.1318 18.0974C94.8239 17.2579 94.362 16.571 93.7462 16.0368C93.1304 15.5026 92.2837 15.1973 91.283 14.9684C90.2823 14.7394 88.9737 14.6631 87.5111 14.6631H69.5758V36.1079H76.3497V20.0053H86.8953C87.5881 20.0053 88.127 20.2342 88.6658 20.6158C89.1276 20.9973 89.4355 21.5315 89.4355 22.2184C89.4355 22.9815 89.2046 23.5158 88.6658 23.8973C88.127 24.2789 87.5881 24.5079 86.8953 24.5079H77.1964L90.2053 36.1842H97.672L88.8197 28.5526V28.4H88.7428Z" fill="white"/>
<path d="M124.69 25.9579C124.229 25.6526 123.767 25.4237 123.305 25.3473C122.843 25.271 122.458 25.1947 122.073 25.1947V25.1184C122.304 25.1184 122.535 25.0421 122.92 24.9658C123.305 24.8895 123.69 24.6605 124.075 24.2789C124.459 23.9736 124.844 23.4394 125.152 22.7526C125.46 22.0658 125.614 21.15 125.614 20.0815C125.614 18.8605 125.383 17.8684 124.921 17.1053C124.459 16.3421 123.921 15.8079 123.151 15.4263C122.458 15.0447 121.688 14.8158 120.919 14.7394C120.149 14.6631 119.225 14.5868 118.224 14.5868H99.1345V36.0316H118.224C119.61 36.0316 120.688 35.9553 121.688 35.8026C122.612 35.65 123.459 35.421 124.152 35.0395C124.844 34.6579 125.46 34.0473 125.845 33.2079C126.23 32.3684 126.461 31.3 126.461 30.0026C126.461 28.9342 126.307 28.0947 125.999 27.4079C125.537 26.7974 125.152 26.2631 124.69 25.9579ZM105.6 19.471H117.378C117.84 19.471 118.224 19.6237 118.609 20.0052C118.917 20.3105 119.071 20.7684 119.071 21.3026C119.071 21.9131 118.917 22.371 118.532 22.6763C118.147 22.9816 117.763 23.2105 117.301 23.2105H105.6V19.471ZM119.225 30.6131C118.917 30.9184 118.455 31.071 117.917 31.071H105.677V27.4079H117.917C118.455 27.4079 118.917 27.5605 119.225 27.8658C119.533 28.171 119.687 28.6289 119.687 29.1631C119.764 29.85 119.61 30.3078 119.225 30.6131Z" fill="white"/>
<path d="M128.539 14.6631V36.1079H152.325V31.071H135.313V27.5605H151.247V23.2105H135.313V19.6237H152.325V14.6631H128.539Z" fill="white"/>
<path d="M174.34 28.4C175.648 28.4 176.726 28.2474 177.573 28.0184C178.419 27.7895 179.112 27.3315 179.651 26.7973C180.19 26.2631 180.575 25.5 180.806 24.6605C181.037 23.7447 181.191 22.6763 181.191 21.3789C181.191 20.0816 181.037 19.0131 180.729 18.0974C180.421 17.2579 179.959 16.571 179.343 16.0368C178.727 15.5026 177.881 15.1973 176.88 14.9684C175.879 14.7394 174.571 14.6631 173.108 14.6631H155.173V36.1079H161.947V20.0053H172.646C173.339 20.0053 173.878 20.2342 174.417 20.6158C174.879 20.9973 175.186 21.5315 175.186 22.2184C175.186 22.9815 174.956 23.5158 174.417 23.8973C173.878 24.2789 173.339 24.5079 172.646 24.5079H162.947L175.956 36.1842H183.423L174.571 28.5526V28.4H174.34Z" fill="white"/>
<path d="M204.591 28.9342C204.591 29.3158 204.437 29.6974 204.052 29.9263C203.668 30.1553 203.129 30.3079 202.282 30.3079H192.737C191.967 30.3079 191.428 30.1553 191.044 29.9263C190.659 29.6974 190.505 29.3158 190.505 28.9342V14.6631H183.885V29.9263C183.885 30.9184 183.962 31.6816 184.193 32.3684C184.424 33.0553 184.808 33.6658 185.424 34.2763C186.04 34.8105 186.579 35.1921 186.964 35.4973C187.426 35.7263 187.964 35.9552 188.734 36.1079C189.427 36.2605 190.428 36.3368 191.736 36.3368C193.045 36.3368 194.969 36.4131 197.586 36.4131C200.204 36.4131 202.205 36.4131 203.437 36.3368C204.745 36.3368 205.746 36.1842 206.439 36.1079C207.131 35.9552 207.747 35.8026 208.132 35.5736C208.517 35.3447 209.056 34.8868 209.672 34.3526C210.287 33.7421 210.672 33.1316 210.903 32.4447C211.134 31.7579 211.211 30.9184 211.211 30.0026V14.7394H204.591V28.9342Z" fill="white"/>
<path d="M239.076 25.3474C238.23 23.9737 236.844 23.2868 234.843 23.1342C234.458 23.1342 233.996 23.0579 233.38 23.0579C232.764 23.0579 232.071 22.9815 231.225 22.9815C230.378 22.9815 228.839 22.9053 226.606 22.8289C224.99 22.7526 224.066 22.7526 223.681 22.7526H222.527C221.68 22.7526 220.987 22.6763 220.448 22.4474C219.986 22.2184 219.678 21.7605 219.678 21.0736C219.678 20.6921 219.755 20.3868 219.909 20.1579C220.063 19.9289 220.294 19.7763 220.525 19.6237C220.756 19.471 221.064 19.3947 221.372 19.3947C221.68 19.3947 221.988 19.3184 222.373 19.3184H239.076V14.6631H218.755C216.753 14.6631 215.291 15.1974 214.444 16.3421C213.597 17.4868 213.135 19.0895 213.135 21.3026C213.135 23.1342 213.443 24.4316 214.059 25.3474C214.906 26.5684 216.368 27.2552 218.447 27.3315C218.832 27.3315 219.37 27.4079 219.909 27.4079C220.448 27.4079 221.064 27.4842 221.757 27.4842C222.373 27.4842 223.989 27.5605 226.529 27.6368C228.146 27.7131 229.146 27.7131 229.454 27.7131C229.993 27.7131 230.532 27.7132 230.917 27.7895C231.302 27.7895 231.687 27.8658 232.071 28.0184C232.456 28.171 232.764 28.3237 232.995 28.6289C233.226 28.8579 233.303 29.2395 233.303 29.6974C233.303 30.0789 233.226 30.3842 233.072 30.6131C232.918 30.8421 232.687 30.9947 232.379 31.1473C232.071 31.3 231.841 31.3763 231.456 31.3763C231.148 31.3763 230.763 31.4526 230.378 31.4526H213.905V36.1079H233.457C235.766 36.1079 237.383 35.5737 238.46 34.5815C239.461 33.5131 240 31.8342 240 29.5447C240 27.8658 239.692 26.4921 239.076 25.3474Z" fill="white"/>
</g>
<defs>
<filter id="filter0_d_204_39" x="0" y="0" width="255" height="59" filterUnits="userSpaceOnUse" color-interpolation-filters="sRGB">
<feFlood flood-opacity="0" result="BackgroundImageFix"/>
<feColorMatrix in="SourceAlpha" type="matrix" values="0 0 0 0 0 0 0 0 0 0 0 0 0 0 0 0 0 0 127 0" result="hardAlpha"/>
<feOffset dy="4"/>
<feGaussianBlur stdDeviation="7.5"/>
<feColorMatrix type="matrix" values="0 0 0 0 0 0 0 0 0 0 0 0 0 0 0 0 0 0 0.21 0"/>
<feBlend mode="normal" in2="BackgroundImageFix" result="effect1_dropShadow_204_39"/>
<feBlend mode="normal" in="SourceGraphic" in2="effect1_dropShadow_204_39" result="shape"/>
</filter>
</defs>
</svg>
